<svg width="58" height="58" viewBox="0 0 58 58" fill="none" xmlns="http://www.w3.org/2000/svg">
<path d="M15.55 5.32504C13.75 7.15004 12.25 8.80004 12.25 9.00004C12.25 9.22504 18.15 15.275 25.35 22.475C36.75 33.875 38.5 35.525 38.9 35.3C39.75 34.825 45.825 28.575 45.7 28.25C45.525 27.675 19.65 2.00004 19.25 2.00004C19.05 2.00004 17.375 3.50004 15.55 5.32504ZM20.25 5.10004C20.25 5.22504 19.85 5.77504 19.35 6.27504C18.75 6.87504 18.475 7.35004 18.575 7.62504C18.9 8.40004 19.525 8.35004 20.475 7.40004C20.975 6.90004 21.5 6.50004 21.625 6.50004C21.75 6.50004 22.225 6.85004 22.675 7.30004L23.475 8.07504L23 8.70004C22.375 9.47504 22.375 9.92504 22.975 10.225C23.35 10.425 23.6 10.375 24.125 9.95004L24.8 9.42504L25.575 10.2L26.325 10.975L25.425 11.975C24.375 13.125 24.275 13.625 25 14C25.425 14.225 25.675 14.1 26.575 13.275L27.675 12.275L28.6 13.225C29.5 14.15 29.5 14.15 29 14.625C27.875 15.65 28.75 16.675 30.075 15.9C30.825 15.475 30.85 15.475 31.6 16.225L32.35 17L31.4 17.975C29.7 19.725 30.775 20.8 32.525 19.1L33.5 18.15L34.425 19.05C35.325 19.95 35.325 20 34.9 20.475C34.325 21.1 34.45 22.1 35.15 22.2C35.425 22.25 35.875 22.05 36.125 21.75L36.6 21.25L37.425 22.05L38.25 22.85L37.35 23.775C36.725 24.4 36.475 24.875 36.55 25.275C36.675 26.225 37.45 26.15 38.525 25.1L39.5 24.15L40.425 25.075L41.35 25.975L40.75 26.625C40.275 27.125 40.2 27.35 40.4 27.7C40.8 28.325 41.325 28.35 42 27.75C42.55 27.275 42.6 27.275 43.05 27.65C43.3 27.9 43.5 28.15 43.5 28.25C43.5 28.35 42.425 29.525 41.075 30.85L38.675 33.3L26.525 21.15L14.375 9.00004L16.875 6.50004C19.2 4.17504 19.375 4.05004 19.8 4.42504C20.05 4.65004 20.25 4.95004 20.25 5.10004Z" fill="black"/>
<path d="M33.4251 6.90002C31.2501 9.05002 30.5001 9.95002 30.5501 10.35C30.7001 11.325 31.5001 11.1 32.9001 9.72502L34.2501 8.40002L36.7501 10.875L39.2501 13.35L37.9751 14.65C36.9751 15.675 36.7251 16.05 36.8751 16.475C37.2001 17.55 38.0501 17.1 40.8501 14.275L43.5751 11.55L43.4251 10.4C43.0001 7.35002 40.4001 4.72502 37.2501 4.12502C36.4001 3.97502 36.3001 4.05002 33.4251 6.90002ZM38.7751 6.52502C39.9751 7.12502 41.1501 8.52502 41.5251 9.75002C41.8251 10.725 41.8001 10.8 41.1751 11.45L40.5001 12.125L38.0001 9.62502L35.5001 7.15002L36.1751 6.45002C36.9001 5.70002 37.1501 5.70002 38.7751 6.52502Z" fill="black"/>
<path d="M3.32496 6.47503C1.72496 7.47503 1.72496 7.42503 1.79996 18.55L1.87496 28.625L2.47496 28.7C2.79996 28.75 3.17496 28.65 3.27496 28.45C3.39996 28.275 3.49996 23.725 3.49996 18.35C3.49996 8.75003 3.49996 8.57503 4.02496 8.10003C4.47496 7.70003 5.07496 7.60003 8.09996 7.50003L11.625 7.37503V6.75003V6.12503L7.87496 6.05003C4.52496 6.00003 4.04996 6.05003 3.32496 6.47503Z" fill="black"/>
<path d="M45.6 6.37504C45.2 7.40004 45.575 7.50004 49.45 7.50004C52.85 7.50004 53.25 7.55004 53.85 8.02504L54.5 8.52504V13.1C54.5 16.675 54.575 17.75 54.85 18.15C55.15 18.525 55.3 18.575 55.675 18.35C56.075 18.1 56.125 17.6 56.2 13.275C56.275 7.95004 56.15 7.37504 54.675 6.50004C53.975 6.05004 53.4 6.00004 49.8 6.00004C46.425 6.00004 45.7 6.07504 45.6 6.37504Z" fill="black"/>
<path d="M18.925 21.3501C18.025 22.2501 17.2 23.2501 17.125 23.5501C17.025 23.8751 16.4 25.8751 15.725 28.0251C14.4 32.1751 14.3 32.9251 14.875 33.1501C15.075 33.2501 17.375 32.6501 19.95 31.8501L24.625 30.3751L26.325 28.7751C28 27.1751 28.275 26.6251 27.7 26.0501C27.225 25.5751 27.05 25.6751 25.6 27.0501L24.225 28.3501L21.875 26.0001C20.575 24.7001 19.5 23.5251 19.5 23.4001C19.5 23.2501 20.025 22.6001 20.675 21.9501C21.65 20.9501 21.825 20.6751 21.6 20.3001C21.1 19.5251 20.6 19.7251 18.925 21.3501ZM22.5 29.0501C22.5 29.2001 17.15 31.0001 16.7 31.0001C16.6 31.0001 16.925 29.8001 17.425 28.3001C17.9 26.8251 18.35 25.4751 18.4 25.2751C18.475 25.0251 19.175 25.5501 20.5 26.8751C21.6 27.9751 22.5 28.9501 22.5 29.0501Z" fill="black"/>
<path d="M54.65 22.375C54.575 22.6 54.5 26 54.5 29.9V37H29H3.5V34.9C3.5 32.65 3.225 32.075 2.25 32.375C1.775 32.525 1.75 32.7 1.75 37.8C1.75 43.9 1.875 44.4 3.6 45.25C4.6 45.725 5.1 45.75 13.325 45.75H22V47.85V49.95L20.625 50.05C18.925 50.2 18.075 50.775 17.325 52.25C16.7 53.45 16.575 55.225 17.05 55.7C17.475 56.125 40.525 56.125 40.95 55.7C41.4 55.25 41.3 53.525 40.775 52.35C40.15 50.95 39 50.175 37.325 50.05L36 49.95V47.85V45.75H44.675C52.9 45.75 53.4 45.725 54.4 45.25C56.275 44.325 56.275 44.475 56.2 32.575L56.125 22.125L55.475 22.05C55.05 22 54.75 22.125 54.65 22.375ZM54.5 40.875C54.5 44.375 57.575 44 29 44C0.425 44 3.5 44.375 3.5 40.875V38.75H29H54.5V40.875ZM34.25 47.875V50H29H23.75V47.875V45.75H29H34.25V47.875ZM38.775 52.475C39.175 52.875 39.5 53.45 39.5 53.725C39.5 54.25 39.475 54.25 29 54.25C18.8 54.25 18.5 54.225 18.5 53.775C18.5 53.5 18.8 52.95 19.15 52.525L19.8 51.75H28.925H38.05L38.775 52.475Z" fill="black"/>
<path d="M28.1001 39.2501C26.8751 39.7501 26.3501 41.5751 27.1251 42.6501C28.4001 44.5001 31.2501 43.5751 31.2501 41.3251C31.2501 39.8001 29.5001 38.6501 28.1001 39.2501ZM29.4251 41.1501C29.6251 41.6751 29.1001 42.2001 28.7251 41.8251C28.4001 41.5001 28.6001 40.7501 29.0001 40.7501C29.1501 40.7501 29.3251 40.9251 29.4251 41.1501Z" fill="black"/>
</svg>
