<svg width="105" height="71" viewBox="0 0 105 71" fill="none" xmlns="http://www.w3.org/2000/svg">
<g clip-path="url(#clip0_505_11711)">
<path fill-rule="evenodd" clip-rule="evenodd" d="M23.3234 12.1508C10.4518 12.1508 0 22.6025 0 35.5257C0 48.3973 10.4518 58.8491 23.3234 58.8491C36.1951 58.8491 46.6468 48.3973 46.6468 35.5257C46.6468 22.6025 36.2466 12.1508 23.3234 12.1508ZM23.3234 24.3531C29.4503 24.3531 34.4445 29.3473 34.4445 35.4742C34.4445 41.6011 29.4503 46.5953 23.3234 46.5953C17.1965 46.5953 12.2023 41.6011 12.2023 35.4742C12.2023 29.3473 17.1965 24.3531 23.3234 24.3531Z" fill="white"/>
<path fill-rule="evenodd" clip-rule="evenodd" d="M23.3233 -0.00012207C21.0579 -0.00012207 19.2559 1.80191 19.2559 4.06732C19.2559 6.33273 21.0579 8.13476 23.3233 8.13476C25.5887 8.13476 27.3907 6.33273 27.3907 4.06732C27.3907 1.80191 25.5887 -0.00012207 23.3233 -0.00012207Z" fill="white"/>
<path fill-rule="evenodd" clip-rule="evenodd" d="M23.3233 70.9999C21.0579 70.9999 19.2559 69.1978 19.2559 66.9324C19.2559 64.667 21.0579 62.865 23.3233 62.865C25.5887 62.865 27.3907 64.667 27.3907 66.9324C27.3907 69.1978 25.5887 70.9999 23.3233 70.9999Z" fill="white"/>
<path fill-rule="evenodd" clip-rule="evenodd" d="M63.2269 28.823V39.1203C63.2269 39.2233 63.2269 39.2748 63.0724 39.2748H59.3654H57.7178C56.8426 39.1718 56.3792 38.6569 56.3277 37.7817V32.3756H53.187V37.7302C53.393 41.2313 55.7613 42.1065 57.5634 42.4155H59.3139H61.7338C65.8012 41.9006 66.3161 38.9659 66.3161 38.0391V28.823H63.2269Z" fill="white"/>
<path fill-rule="evenodd" clip-rule="evenodd" d="M91.7998 32.2212H87.9383C87.7838 33.045 86.6511 35.8768 83.0471 35.9797H74.0884C73.625 35.9797 72.5438 35.7738 72.5953 34.3837V25.7854H69.4546V34.3322C69.5061 37.2669 71.3596 38.8115 73.8824 39.0689H82.8926C85.3639 38.9145 87.1145 38.5026 87.9898 37.0095V39.0689C88.0927 40.0472 88.7106 40.8195 89.9977 40.8195H91.7483V39.0689H99.1624C103.281 39.0175 103.848 36.4946 103.848 34.4351V28.8746H100.707V35.7738C100.707 35.8768 100.655 35.9797 100.552 35.9797H99.1109H93.2414C92.6236 35.9283 91.7483 35.4649 91.7998 34.4351V32.2212Z" fill="white"/>
<path fill-rule="evenodd" clip-rule="evenodd" d="M58.4882 28.9261H60.7022C61.0111 28.9261 61.2685 29.1836 61.2685 29.4925V31.7064C61.2685 32.0153 61.0111 32.2728 60.7022 32.2728H58.4882C58.1793 32.2728 57.9219 32.0153 57.9219 31.7064V29.4925C57.9219 29.1836 58.1793 28.9261 58.4882 28.9261Z" fill="white"/>
<path fill-rule="evenodd" clip-rule="evenodd" d="M98.2875 40.8706H100.501C100.81 40.8706 101.068 41.128 101.068 41.437V43.6509C101.068 43.9598 100.81 44.2172 100.501 44.2172H98.2875C97.9786 44.2172 97.7212 43.9598 97.7212 43.6509V41.437C97.7212 41.128 97.9786 40.8706 98.2875 40.8706Z" fill="white"/>
</g>
<defs>
<clipPath id="clip0_505_11711">
<rect width="104.621" height="71" fill="white"/>
</clipPath>
</defs>
</svg>
