<svg width="1736" height="804" viewBox="0 0 1736 804" fill="none" xmlns="http://www.w3.org/2000/svg">
<path d="M263.027 346.673L263.027 416.997H262.482C243.069 416.997 225.492 426.146 212.77 440.937C200.049 455.726 192.179 476.161 192.179 498.729V499.363L131.141 499.363L131.141 498.729C131.141 456.565 145.842 418.391 169.608 390.76C193.377 363.129 226.213 346.039 262.482 346.039H263.027V346.673ZM261.937 415.733L261.937 347.31C226.185 347.48 193.831 364.394 170.379 391.656C146.928 418.919 132.379 456.531 132.233 498.093L191.092 498.093C191.238 475.425 199.199 454.918 211.999 440.038C224.799 425.157 242.437 415.901 261.937 415.731V415.733Z" fill="#E7E7E7" fill-opacity="0.7"/>
<path d="M192.179 499.315C192.326 521.631 200.166 541.821 212.768 556.473C225.373 571.124 242.74 580.239 261.937 580.407L261.937 499.315L192.178 499.315H192.179ZM211.997 557.368C199.078 542.35 191.086 521.6 191.086 498.681V498.047L263.028 498.047L263.028 581.678H262.482C242.767 581.678 224.918 572.389 211.997 557.368Z" fill="#E7E7E7" fill-opacity="0.7"/>
<path d="M132.227 518.434L132.227 650.107L245.493 650.107C216.016 645.682 189.602 629.898 169.607 606.652C149.613 583.408 136.034 552.701 132.227 518.434ZM131.137 650.741L131.137 498.684H132.227C132.227 540.498 146.807 578.355 170.378 605.756C193.949 633.159 226.513 650.107 262.483 650.107V651.375L131.137 651.375V650.741Z" fill="#E7E7E7" fill-opacity="0.7"/>
<path d="M332.786 498.071C332.64 475.754 324.8 455.564 312.196 440.913C299.591 426.261 282.224 417.147 263.024 416.978L263.024 498.072L332.786 498.072V498.071ZM312.967 440.015C325.887 455.036 333.88 475.785 333.88 498.705V499.338L261.934 499.338L261.934 415.707H262.479C282.196 415.707 300.046 424.998 312.967 440.017V440.015Z" fill="#E7E7E7" fill-opacity="0.7"/>
<path d="M392.623 478.953L392.623 347.282L279.354 347.282C308.831 351.707 335.246 367.491 355.241 390.735C375.238 413.979 388.815 444.686 392.621 478.952L392.623 478.953ZM393.714 346.65L393.714 498.705H392.623C392.623 456.892 378.043 419.035 354.471 391.634C330.899 364.233 298.334 347.283 262.363 347.283V346.016L393.712 346.016V346.65H393.714Z" fill="#E7E7E7" fill-opacity="0.7"/>
<path d="M262.36 380.138L263.227 380.142C291.001 380.414 316.052 393.673 334.158 414.931C352.264 436.19 363.429 465.451 363.429 497.723L363.426 498.736L362.34 498.731L362.343 497.721C362.343 465.797 351.298 436.853 333.386 415.821C315.473 394.79 290.692 381.671 263.221 381.403L262.355 381.399L262.36 380.137V380.138Z" fill="#E7E7E7" fill-opacity="0.7"/>
<path d="M464.562 346.64C464.562 369.558 456.571 390.307 443.65 405.328C430.731 420.346 412.882 429.638 393.168 429.638H392.623L392.623 346.008L464.56 346.008V346.642L464.562 346.64ZM442.88 404.43C455.483 389.779 463.322 369.59 463.468 347.274L393.714 347.274L393.714 428.366C412.91 428.196 430.277 419.084 442.88 404.432V404.43Z" fill="#E7E7E7" fill-opacity="0.7"/>
<path d="M524.506 346.637L524.506 499.326L393.162 499.326V498.058C429.13 498.058 461.695 481.109 485.267 453.708C508.837 426.307 523.417 388.45 523.417 346.637L524.508 346.637H524.506ZM523.416 498.058L523.416 366.387C519.609 400.654 506.032 431.359 486.036 454.604C466.039 477.848 439.625 493.633 410.15 498.058L523.416 498.058Z" fill="#E7E7E7" fill-opacity="0.7"/>
<path d="M655.321 650.751C655.321 692.916 640.618 731.089 616.85 758.72C593.082 786.35 560.244 803.442 523.975 803.442H523.43L523.43 650.117L655.321 650.117V650.751ZM616.078 757.824C639.53 730.56 654.08 692.947 654.226 651.385L524.519 651.385L524.519 802.171C560.27 802.001 592.626 785.088 616.078 757.824Z" fill="#E7E7E7" fill-opacity="0.7"/>
<path d="M583.377 650.741C583.377 627.823 591.369 607.071 604.288 592.052C617.207 577.033 635.058 567.742 654.773 567.742H655.319L655.319 651.374L583.377 651.374V650.74V650.741ZM605.059 592.948C592.455 607.599 584.615 627.789 584.47 650.107L654.229 650.107L654.229 569.013C635.031 569.183 617.664 578.296 605.06 592.948H605.059Z" fill="#E7E7E7" fill-opacity="0.7"/>
<path d="M523.428 650.738L523.428 498.047L654.774 498.047V499.315C618.804 499.315 586.24 516.264 562.669 543.665C539.097 571.068 524.518 608.923 524.518 650.738H523.428ZM524.518 499.315L524.518 630.988C528.325 596.721 541.902 566.014 561.898 542.77C581.893 519.525 608.306 503.74 637.784 499.315L524.518 499.315Z" fill="#E7E7E7" fill-opacity="0.7"/>
<path d="M131.16 194.473L131.16 124.147H131.705C151.118 124.147 168.695 114.999 181.417 100.209C194.139 85.4202 202.008 64.9869 202.008 42.4191V41.7852L263.05 41.7852V42.4191C263.05 84.5823 248.349 122.755 224.581 150.384C200.812 178.013 167.975 195.105 131.705 195.105H131.16L131.16 194.471V194.473ZM132.251 125.411L132.251 193.836C168.002 193.666 200.358 176.752 223.81 149.49C247.262 122.228 261.81 84.6163 261.958 43.0547L203.096 43.0547C202.95 65.7211 194.988 86.2275 182.189 101.107C169.388 115.986 151.75 125.242 132.251 125.411Z" fill="#E7E7E7" fill-opacity="0.7"/>
<path d="M61.3943 43.053C61.5405 65.3693 69.3794 85.5579 81.9827 100.209C94.586 114.859 111.952 123.974 131.149 124.144L131.149 43.0547L61.3943 43.0547V43.053ZM81.2108 101.105C68.2917 86.0864 60.3008 65.337 60.3008 42.4191V41.7852L132.238 41.7852L132.238 125.413H131.693C111.979 125.413 94.1299 116.122 81.2108 101.105Z" fill="#E7E7E7" fill-opacity="0.7"/>
<path d="M0.545302 193.838L114.71 193.838C85.1897 189.409 58.6805 173.604 38.6038 150.327C14.7743 122.7 0 84.5506 0 42.418L1.0906 42.418C1.0906 84.2022 15.7392 122.035 39.3698 149.43C63.0341 176.865 95.7112 193.836 131.705 193.836V195.104L0.545302 195.104L0.545302 193.836V193.838Z" fill="#E7E7E7" fill-opacity="0.7"/>
<path d="M332.801 345.947C332.655 323.629 324.816 303.439 312.213 288.788C299.61 274.136 282.242 265.023 263.044 264.853L263.044 345.949L332.803 345.949L332.801 345.947ZM312.983 287.89C325.902 302.909 333.895 323.66 333.895 346.581V347.215L261.953 347.215L261.953 263.582H262.498C282.215 263.582 300.064 272.873 312.985 287.892L312.983 287.89Z" fill="#E7E7E7" fill-opacity="0.7"/>
<path d="M392.617 326.83L392.617 195.156L279.347 195.156C308.823 199.582 335.239 215.365 355.235 238.611C375.232 261.855 388.809 292.562 392.617 326.83ZM393.708 194.522L393.708 346.578H392.617C392.617 304.763 378.037 266.908 354.465 239.505C330.893 212.104 298.328 195.155 262.357 195.155V193.887L393.708 193.887V194.521V194.522Z" fill="#E7E7E7" fill-opacity="0.7"/>
<path d="M333.903 42.4191C333.903 65.337 325.91 86.0864 312.991 101.105C300.071 116.124 282.222 125.413 262.506 125.413H261.961L261.961 41.7852L333.903 41.7852V42.4191ZM312.221 100.209C324.824 85.5579 332.664 65.3693 332.809 43.053L263.05 43.053L263.05 124.142C282.248 123.972 299.616 114.859 312.219 100.209H312.221Z" fill="#E7E7E7" fill-opacity="0.7"/>
<path d="M393.71 42.4727L393.71 195.159L262.359 195.159V193.891C298.33 193.891 330.895 176.943 354.467 149.542C378.039 122.141 392.619 84.2858 392.619 42.4727H393.71ZM392.619 193.893L392.619 62.2227C388.812 96.4883 375.234 127.195 355.237 150.439C335.241 173.684 308.827 189.467 279.35 193.893L392.619 193.893Z" fill="#E7E7E7" fill-opacity="0.7"/>
<path d="M1140.01 762.296C1140.01 739.376 1148 718.627 1160.92 703.607C1173.84 688.588 1191.69 679.297 1211.4 679.297H1211.94L1211.94 762.296H1210.85L1210.85 680.568C1191.66 680.738 1174.29 689.853 1161.69 704.504C1148.97 719.295 1141.1 739.728 1141.1 762.298H1140.01L1140.01 762.296Z" fill="#E7E7E7" fill-opacity="0.7"/>
<path d="M1081 762.058L1081 609.367L1212.35 609.367V610.635C1176.38 610.635 1143.81 627.584 1120.24 654.986C1096.67 682.387 1082.09 720.244 1082.09 762.058H1081H1081ZM1082.09 610.635L1082.09 742.308C1085.9 708.041 1099.48 677.334 1119.47 654.09C1139.47 630.844 1165.88 615.061 1195.36 610.635L1082.09 610.635H1082.09Z" fill="#E7E7E7" fill-opacity="0.7"/>
<path d="M1283.75 152.777C1283.75 175.695 1275.75 196.447 1262.83 211.466C1249.91 226.486 1232.06 235.776 1212.35 235.776H1211.8L1211.8 152.145L1283.75 152.145V152.778V152.777ZM1262.06 210.569C1274.67 195.917 1282.51 175.727 1282.65 153.411L1212.89 153.411L1212.89 234.505C1232.09 234.335 1249.46 225.222 1262.06 210.57V210.569Z" fill="#E7E7E7" fill-opacity="0.7"/>
<path d="M1343.58 152.777L1343.58 305.467L1212.23 305.467V304.199C1248.2 304.199 1280.77 287.25 1304.34 259.849C1327.91 232.447 1342.49 194.591 1342.49 152.777H1343.58H1343.58ZM1342.49 304.199L1342.49 172.527C1338.68 206.795 1325.1 237.5 1305.11 260.744C1285.11 283.988 1258.7 299.772 1229.22 304.197L1342.49 304.197L1342.49 304.199Z" fill="#E7E7E7" fill-opacity="0.7"/>
<path d="M1212.22 270.078L1213.09 270.075C1240.56 269.806 1265.34 256.688 1283.25 235.656C1301.16 214.628 1312.21 185.682 1312.21 153.757L1312.21 152.747L1313.29 152.742L1313.29 153.753C1313.3 186.025 1302.13 215.286 1284.02 236.547C1265.92 257.805 1240.87 271.064 1213.09 271.336L1212.23 271.339L1212.22 270.077L1212.22 270.078Z" fill="#E7E7E7" fill-opacity="0.7"/>
<path d="M1414.43 152.738C1414.43 175.656 1406.44 196.405 1393.52 211.425C1380.6 226.444 1362.75 235.735 1343.04 235.735H1342.49L1342.49 152.105L1414.43 152.105V152.739L1414.43 152.738ZM1392.75 210.528C1405.35 195.876 1413.19 175.688 1413.34 153.372L1343.58 153.372L1343.58 234.464C1362.78 234.294 1380.15 225.181 1392.75 210.53V210.528Z" fill="#E7E7E7" fill-opacity="0.7"/>
<path d="M1474.38 152.734L1474.38 305.424L1343.03 305.424V304.156C1379 304.156 1411.56 287.207 1435.14 259.806C1458.71 232.404 1473.29 194.548 1473.29 152.734H1474.38H1474.38ZM1473.29 304.156L1473.29 172.484C1469.48 206.752 1455.9 237.457 1435.9 260.701C1415.91 283.945 1389.5 299.731 1360.02 304.156L1473.28 304.156H1473.29Z" fill="#E7E7E7" fill-opacity="0.7"/>
<path d="M1604.09 304.792L1604.04 235.774C1584.51 235.625 1566.85 226.366 1554.03 211.468C1541.11 196.449 1533.12 175.698 1533.12 152.778V152.145L1605.06 152.145L1605.18 304.792H1604.09H1604.09ZM1604.04 234.506L1603.98 153.412L1534.21 153.412C1534.36 175.729 1542.2 195.919 1554.8 210.57C1567.42 225.239 1584.82 234.357 1604.04 234.506Z" fill="#E7E7E7" fill-opacity="0.7"/>
<path d="M1474.38 172.525L1474.38 304.197L1587.64 304.197C1558.17 299.771 1531.75 283.988 1511.76 260.744C1491.76 237.499 1478.18 206.793 1474.38 172.527V172.525ZM1473.29 304.829L1473.29 152.773H1474.38C1474.38 194.587 1488.96 232.443 1512.53 259.845C1536.1 287.246 1568.66 304.195 1604.64 304.195V305.463L1473.29 305.463V304.829H1473.29Z" fill="#E7E7E7" fill-opacity="0.7"/>
<path d="M1604.64 271.339L1603.77 271.336C1575.99 271.064 1550.94 257.805 1532.84 236.547C1514.73 215.288 1503.57 186.027 1503.57 153.757L1503.57 152.742L1504.66 152.747L1504.66 153.757C1504.66 185.682 1515.7 214.628 1533.61 235.656C1551.52 256.688 1576.31 269.807 1603.78 270.075L1604.64 270.078L1604.64 271.341L1604.64 271.339Z" fill="#E7E7E7" fill-opacity="0.7"/>
<path d="M1676.04 152.738C1676.04 175.656 1668.05 196.405 1655.12 211.425C1642.21 226.444 1624.36 235.735 1604.64 235.735H1604.1L1604.1 152.105L1676.03 152.105V152.739L1676.04 152.738ZM1654.35 210.528C1666.96 195.876 1674.8 175.688 1674.94 153.372L1605.19 153.372L1605.19 234.464C1624.38 234.294 1641.75 225.181 1654.35 210.53V210.528Z" fill="#E7E7E7" fill-opacity="0.7"/>
<path d="M1735.98 152.734L1735.98 305.424L1604.64 305.424V304.156C1640.6 304.156 1673.17 287.207 1696.74 259.806C1720.31 232.404 1734.89 194.548 1734.89 152.734H1735.98H1735.98ZM1734.89 304.156L1734.89 172.484C1731.08 206.752 1717.51 237.457 1697.51 260.701C1677.51 283.945 1651.1 299.731 1621.62 304.156L1734.89 304.156H1734.89Z" fill="#E7E7E7" fill-opacity="0.7"/>
<path d="M1676.04 0.680801C1676.04 23.5988 1668.05 44.3481 1655.12 59.3667C1642.21 74.3854 1624.36 83.6766 1604.64 83.6766H1604.1L1604.1 0.046875L1676.03 0.046875V0.680801H1676.04ZM1654.35 58.4711C1666.96 43.8196 1674.8 23.631 1674.94 1.31472L1605.19 1.31472L1605.19 82.4054C1624.38 82.2354 1641.75 73.1226 1654.35 58.4711Z" fill="#E7E7E7" fill-opacity="0.7"/>
<path d="M1735.98 0.679688L1735.98 153.369L1604.64 153.369V152.101C1640.6 152.101 1673.17 135.152 1696.74 107.751C1720.31 80.3496 1734.89 42.4946 1734.89 0.679688L1735.98 0.679688H1735.98ZM1734.89 152.101L1734.89 20.4297C1731.08 54.6971 1717.51 85.4022 1697.51 108.646C1677.51 131.891 1651.1 147.676 1621.62 152.101L1734.89 152.101H1734.89Z" fill="#E7E7E7" fill-opacity="0.7"/>
<path d="M1534.35 1.31302C1534.49 23.6293 1542.33 43.8179 1554.93 58.4694C1567.54 73.1209 1584.9 82.2337 1604.1 82.4037L1604.1 1.31302L1534.35 1.31302ZM1554.16 59.3667C1541.24 44.3481 1533.25 23.5988 1533.25 0.680791V0.046875L1605.19 0.046875L1605.19 83.6766H1604.64C1584.93 83.6766 1567.08 74.3854 1554.16 59.3667H1554.16Z" fill="#E7E7E7" fill-opacity="0.7"/>
<path d="M1474.4 20.4275L1474.4 152.099L1587.66 152.099C1558.18 147.674 1531.77 131.89 1511.77 108.644C1491.78 85.4 1478.2 54.6949 1474.39 20.4275H1474.4ZM1473.3 152.731L1473.3 0.675781L1474.4 0.675781C1474.4 42.4907 1488.98 80.3457 1512.55 107.747C1536.12 135.148 1568.68 152.097 1604.65 152.097V153.365L1473.31 153.365V152.731H1473.3Z" fill="#E7E7E7" fill-opacity="0.7"/>
<path d="M1272.84 305.463C1272.99 327.779 1280.83 347.97 1293.43 362.623C1306.04 377.274 1323.4 386.387 1342.6 386.557L1342.6 305.463L1272.84 305.463H1272.84ZM1292.66 363.519C1279.74 348.5 1271.75 327.747 1271.75 304.829V304.195L1343.69 304.195L1343.69 387.827H1343.15C1323.43 387.827 1305.58 378.535 1292.66 363.517V363.519Z" fill="#E7E7E7" fill-opacity="0.7"/>
<path d="M1212.89 325.641L1212.89 457.314L1326.16 457.314C1296.68 452.888 1270.27 437.105 1250.27 413.859C1230.28 390.613 1216.7 359.908 1212.89 325.641ZM1211.8 457.948L1211.8 305.891H1212.89C1212.89 347.705 1227.47 385.562 1251.04 412.963C1274.61 440.365 1307.18 457.314 1343.15 457.314V458.582L1211.8 458.582V457.948Z" fill="#E7E7E7" fill-opacity="0.7"/>
<path d="M1211.8 610.002L1211.8 539.678H1212.35C1231.76 539.678 1249.34 530.529 1262.06 515.738C1274.78 500.949 1282.65 480.514 1282.65 457.946V457.313L1343.69 457.313V457.946C1343.69 500.111 1328.99 538.284 1305.22 565.913C1281.45 593.544 1248.62 610.634 1212.35 610.634H1211.8V610L1211.8 610.002ZM1212.89 540.942L1212.89 609.365C1248.65 609.195 1281 592.281 1304.45 565.018C1327.9 537.756 1342.45 500.142 1342.6 458.58L1283.74 458.58C1283.59 481.248 1275.63 501.755 1262.83 516.634C1250.03 531.515 1232.39 540.771 1212.89 540.941L1212.89 540.942Z" fill="#E7E7E7" fill-opacity="0.7"/>
<path d="M1151.85 609.371C1151.7 587.055 1143.87 566.865 1131.26 552.212C1118.66 537.56 1101.29 528.447 1082.09 528.277L1082.09 609.371L1151.85 609.371H1151.85ZM1132.03 551.316C1144.95 566.335 1152.94 587.087 1152.94 610.005V610.639L1081 610.639L1081 527.008H1081.55C1101.26 527.008 1119.11 536.299 1132.03 551.318V551.316Z" fill="#E7E7E7" fill-opacity="0.7"/>
<path d="M1211.8 590.254L1211.8 458.58L1098.54 458.58C1128.01 463.006 1154.43 478.789 1174.42 502.035C1194.42 525.279 1207.99 555.988 1211.8 590.255L1211.8 590.254ZM1212.89 457.946L1212.89 610.004H1211.8C1211.8 568.189 1197.22 530.332 1173.65 502.931C1150.08 475.53 1117.51 458.58 1081.54 458.58V457.312L1212.89 457.313V457.946Z" fill="#E7E7E7" fill-opacity="0.7"/>
</svg>
